<?xml version="1.0" encoding="UTF-8" standalone="no"?>
<svg
   xmlns:dc="http://purl.org/dc/elements/1.1/"
   xmlns:cc="http://creativecommons.org/ns#"
   xmlns:rdf="http://www.w3.org/1999/02/22-rdf-syntax-ns#"
   xmlns:svg="http://www.w3.org/2000/svg"
   xmlns="http://www.w3.org/2000/svg"
   xmlns:sodipodi="http://sodipodi.sourceforge.net/DTD/sodipodi-0.dtd"
   xmlns:inkscape="http://www.inkscape.org/namespaces/inkscape"
   viewBox="0 0 100 100"
   x="0px"
   y="0px"
   version="1.1"
   id="svg12"
   sodipodi:docname="not_found_icon.svg"
   width="100"
   height="100"
   inkscape:version="0.92.5 (2060ec1f9f, 2020-04-08)">
  <metadata
     id="metadata18">
    <rdf:RDF>
      <cc:Work
         rdf:about="">
        <dc:format>image/svg+xml</dc:format>
        <dc:type
           rdf:resource="http://purl.org/dc/dcmitype/StillImage" />
        <dc:title>nounproject_june_2020</dc:title>
      </cc:Work>
    </rdf:RDF>
  </metadata>
  <defs
     id="defs16" />
  <sodipodi:namedview
     pagecolor="#ffffff"
     bordercolor="#666666"
     borderopacity="1"
     objecttolerance="10"
     gridtolerance="10"
     guidetolerance="10"
     inkscape:pageopacity="0"
     inkscape:pageshadow="2"
     inkscape:window-width="1920"
     inkscape:window-height="1001"
     id="namedview14"
     showgrid="false"
     inkscape:zoom="1.888"
     inkscape:cx="50"
     inkscape:cy="62.5"
     inkscape:window-x="-9"
     inkscape:window-y="-9"
     inkscape:window-maximized="1"
     inkscape:current-layer="svg12" />
  <title
     id="title2">nounproject_june_2020</title>
  <g
     data-name="Layer 4"
     id="g6"
     transform="matrix(1.1459263,0,0,1.1459263,-5.382924,-9.8302663)"
     style="fill:#ffffff">
    <path
       d="M 89.44,16.06 A 0.69,0.69 0 0 0 88.38,15.51 L 77,22.81 A 0.69,0.69 0 0 0 77,24 l 3.5,1.81 0.46,0.24 L 73,40.76 A 8.46,8.46 0 0 1 68.31,44.81 8.06,8.06 0 0 1 61.51,44.03 11.54,11.54 0 0 0 59.16,43 l 2.76,-6.82 a 1,1 0 0 0 -0.55,-1.3 l -2.32,-0.94 a 1,1 0 0 0 -1.3,0.56 l -3.2,7.92 a 12.94,12.94 0 0 0 -9.66,5.52 l -1.72,2.47 c -0.09,0.14 -0.19,0.26 -0.29,0.39 a 7.73,7.73 0 0 1 0,-5.79 12.47,12.47 0 0 0 -0.16,-10.12 13.09,13.09 0 0 0 -7.38,-6.69 l -15.67,-5.9 0.21,-0.61 1.31,-3.71 A 0.69,0.69 0 0 0 20.42,17.07 L 7.15,19.51 a 0.68,0.68 0 0 0 -0.39,1.12 l 8.81,10.29 a 0.69,0.69 0 0 0 1.17,-0.22 l 1.31,-3.7 0.18,-0.49 15.66,5.9 a 8.49,8.49 0 0 1 4.67,4.08 8.05,8.05 0 0 1 0.18,6.85 11.85,11.85 0 0 0 0.18,9.66 6.34,6.34 0 0 1 -4.31,-0.9 L 26.39,47 a 1,1 0 0 0 -1.38,0.32 l -1.33,2.12 A 1,1 0 0 0 24,50.77 l 8.21,5.15 a 10.79,10.79 0 0 0 5.79,1.67 11,11 0 0 0 3.72,-0.66 13.07,13.07 0 0 0 3.16,2.26 l 2.7,1.37 a 6.33,6.33 0 0 1 2.93,8.24 l -4,8.85 A 1,1 0 0 0 47,79 l 2.28,1 a 1,1 0 0 0 1.32,-0.51 l 4,-8.85 a 10.83,10.83 0 0 0 -5,-14.1 l -2.69,-1.36 a 8.1,8.1 0 0 1 -1.26,-0.79 11,11 0 0 0 1.24,-1.46 l 1.72,-2.48 a 8.38,8.38 0 0 1 4.09,-3.11 11.25,11.25 0 0 0 7,13 9.19,9.19 0 0 1 5.3,5.75 l 3.55,11.19 -0.61,0.21 -3.73,1.27 A 0.69,0.69 0 0 0 64,79.93 l 10.19,8.92 a 0.69,0.69 0 0 0 1.13,-0.38 l 2.63,-13.29 a 0.69,0.69 0 0 0 -0.9,-0.78 l -3.73,1.27 -0.49,0.16 -3.36,-10.48 a 14.47,14.47 0 0 0 -8.1,-9.18 7,7 0 0 1 -3.91,-9 7.88,7.88 0 0 1 1.8,0.77 12.52,12.52 0 0 0 10.05,1.26 13.1,13.1 0 0 0 7.69,-6.38 l 8,-14.7 0.57,0.3 3.5,1.81 a 0.68,0.68 0 0 0 1,-0.64 z"
       id="path4"
       inkscape:connector-curvature="0"
       style="fill:#ffffff" />
  </g>
</svg>
