<?xml version="1.0" encoding="UTF-8" standalone="no"?>
<!-- Created with Inkscape (http://www.inkscape.org/) -->

<svg
   xmlns:dc="http://purl.org/dc/elements/1.1/"
   xmlns:cc="http://creativecommons.org/ns#"
   xmlns:rdf="http://www.w3.org/1999/02/22-rdf-syntax-ns#"
   xmlns:svg="http://www.w3.org/2000/svg"
   xmlns="http://www.w3.org/2000/svg"
   xmlns:sodipodi="http://sodipodi.sourceforge.net/DTD/sodipodi-0.dtd"
   xmlns:inkscape="http://www.inkscape.org/namespaces/inkscape"
   width="100"
   height="100"
   viewBox="0 0 26.458333 26.458334"
   version="1.1"
   id="svg8"
   sodipodi:docname="plus_icon.svg"
   inkscape:version="0.92.5 (2060ec1f9f, 2020-04-08)">
  <defs
     id="defs2" />
  <sodipodi:namedview
     id="base"
     pagecolor="#ffffff"
     bordercolor="#666666"
     borderopacity="1.0"
     inkscape:pageopacity="0.0"
     inkscape:pageshadow="2"
     inkscape:zoom="2.8"
     inkscape:cx="47.303923"
     inkscape:cy="97.890165"
     inkscape:document-units="mm"
     inkscape:current-layer="svg8"
     showgrid="true"
     units="px"
     inkscape:object-paths="true"
     inkscape:snap-intersection-paths="true"
     inkscape:snap-smooth-nodes="true"
     inkscape:window-width="1920"
     inkscape:window-height="1001"
     inkscape:window-x="-9"
     inkscape:window-y="-9"
     inkscape:window-maximized="1">
    <inkscape:grid
       id="grid815"
       type="xygrid" />
  </sodipodi:namedview>
  <metadata
     id="metadata5">
    <rdf:RDF>
      <cc:Work
         rdf:about="">
        <dc:format>image/svg+xml</dc:format>
        <dc:type
           rdf:resource="http://purl.org/dc/dcmitype/StillImage" />
        <dc:title />
      </cc:Work>
    </rdf:RDF>
  </metadata>
  <g
     id="layer1"
     inkscape:groupmode="layer"
     inkscape:label="Layer 1">
    <path
       id="rect4764-9"
       d="M13.2291671167 3.30729C12.7647931167 3.30729 12.3194391167 3.49183 11.9910781167 3.82032C11.6627161167 4.14882 11.4782461167 4.59434 11.4782481167 5.0589C11.4782481167 5.0589 11.4782481167 9.02919 11.4782481167 9.02919C11.4782501167 9.67957 11.2199911167 10.30331 10.7602851167 10.76319C10.3005791167 11.22308 9.67708391667 11.48144 9.02696111667 11.48144C9.02696111667 11.48144 5.05821131667 11.48144 5.05821131667 11.48144C4.59383901667 11.48144 4.14848611667 11.66598 3.82012511667 11.99447C3.49176401667 12.32296 3.30729251667 12.76849 3.30729221667 13.23304C3.30729251667 13.69759 3.49176401667 14.14312 3.82012511667 14.47161C4.14848611667 14.8001 4.59383901667 14.98464 5.05821131667 14.98464C5.05821131667 14.98464 9.02696111667 14.98464 9.02696111667 14.98464C9.67708371667 14.98464 10.3005791167 15.243 10.7602841167 15.70289C11.2199901167 16.16277 11.4782491167 16.78651 11.4782481167 17.43689C11.4782481167 17.43689 11.4782481167 21.40718 11.4782481167 21.40718C11.4782481167 21.40718 11.4787031167 21.40718 11.4787031167 21.40718C11.4810031167 22.36894 12.2614761167 23.14808 13.2250631167 23.15058C13.2250631167 23.15058 13.2250631167 23.15103 13.2250631167 23.15103C13.6894971167 23.15203 14.1353361167 22.96899 14.4644761167 22.64194C14.7936171167 22.3149 14.9790911167 21.87073 14.9800851167 21.40718C14.9800851167 21.40718 14.9800851167 17.43689 14.9800851167 17.43689C14.9800831167 16.78651 15.2383421167 16.16277 15.6980481167 15.70289C16.1577541167 15.243 16.7812491167 14.98464 17.4313721167 14.98464C17.4313721167 14.98464 21.4001221167 14.98464 21.4001221167 14.98464C21.8644941167 14.98464 22.3098471167 14.8001 22.6382081167 14.47161C22.9665691167 14.14312 23.1510411167 13.69759 23.1510411167 13.23304C23.1510411167 12.76849 22.9665691167 12.32296 22.6382081167 11.99447C22.3098471167 11.66598 21.8644941167 11.48144 21.4001221167 11.48144C21.4001221167 11.48144 17.4313721167 11.48144 17.4313721167 11.48144C16.7812491167 11.48144 16.1577541167 11.22308 15.6980481167 10.76319C15.2383421167 10.30331 14.9800831167 9.67957 14.9800851167 9.02919C14.9800851167 9.02919 14.9800851167 5.0589 14.9800851167 5.0589C14.9800871167 4.59434 14.7956171167 4.14882 14.4672561167 3.82033C14.1388951167 3.49183 13.6935411167 3.30729 13.2291671167 3.30729C13.2291671167 3.30729 13.2291671167 3.30729 13.2291671167 3.30729"
       style="opacity:1;stroke-linejoin:round;vector-effect:none;stroke-opacity:1;fill-opacity:1;paint-order:normal;stroke-dashoffset:0;stroke:#ffffff;stroke-linecap:round;stroke-miterlimit:4;stroke-dasharray:none;stroke-width:0.0;fill:#000000" />
  </g>
</svg>
