<?xml version="1.0" encoding="UTF-8" standalone="no"?>
<svg
   xmlns:dc="http://purl.org/dc/elements/1.1/"
   xmlns:cc="http://creativecommons.org/ns#"
   xmlns:rdf="http://www.w3.org/1999/02/22-rdf-syntax-ns#"
   xmlns:svg="http://www.w3.org/2000/svg"
   xmlns="http://www.w3.org/2000/svg"
   xmlns:sodipodi="http://sodipodi.sourceforge.net/DTD/sodipodi-0.dtd"
   xmlns:inkscape="http://www.inkscape.org/namespaces/inkscape"
   viewBox="0 0 32 32"
   x="0px"
   y="0px"
   version="1.1"
   id="svg12"
   sodipodi:docname="noun_Safety_3248074.svg"
   width="32"
   height="32"
   inkscape:version="0.92.5 (2060ec1f9f, 2020-04-08)">
  <metadata
     id="metadata18">
    <rdf:RDF>
      <cc:Work
         rdf:about="">
        <dc:format>image/svg+xml</dc:format>
        <dc:type
           rdf:resource="http://purl.org/dc/dcmitype/StillImage" />
        <dc:title>safety</dc:title>
      </cc:Work>
    </rdf:RDF>
  </metadata>
  <defs
     id="defs16" />
  <sodipodi:namedview
     pagecolor="#ffffff"
     bordercolor="#666666"
     borderopacity="1"
     objecttolerance="10"
     gridtolerance="10"
     guidetolerance="10"
     inkscape:pageopacity="0"
     inkscape:pageshadow="2"
     inkscape:window-width="2560"
     inkscape:window-height="1017"
     id="namedview14"
     showgrid="false"
     inkscape:zoom="5.9"
     inkscape:cx="16"
     inkscape:cy="20"
     inkscape:window-x="-8"
     inkscape:window-y="-8"
     inkscape:window-maximized="1"
     inkscape:current-layer="svg12" />
  <title
     id="title2">safety</title>
  <g
     data-name="72-safety"
     id="g6"
     transform="translate(-4.8574475e-7,8.6506226e-6)"
     style="fill:#ffffff">
    <path
       d="M 16,31 A 1.0016,1.0016 0 0 1 15.5269,30.8809 24.93,24.93 0 0 1 2,9.1436 21.8644,21.8644 0 0 1 2.3706,5.0625 1,1 0 0 1 3.603,4.2825 12.2949,12.2949 0 0 0 6.7144,4.6673 12.4346,12.4346 0 0 0 15.3052,1.28 a 1.0025,1.0025 0 0 1 1.39,0 12.4346,12.4346 0 0 0 8.5904,3.387 12.2949,12.2949 0 0 0 3.1114,-0.3848 1,1 0 0 1 1.2324,0.78 A 21.8644,21.8644 0 0 1 30,9.1436 24.93,24.93 0 0 1 16.4731,30.8809 1.0016,1.0016 0 0 1 16,31 Z M 4.1724,6.4492 A 20.6546,20.6546 0 0 0 4,9.1436 22.8821,22.8821 0 0 0 16,28.8584 22.8821,22.8821 0 0 0 28,9.1436 20.6546,20.6546 0 0 0 27.8276,6.4492 14.7492,14.7492 0 0 1 25.2856,6.667 14.5429,14.5429 0 0 1 16,3.3447 14.5427,14.5427 0 0 1 6.7144,6.667 14.7492,14.7492 0 0 1 4.1724,6.4492 Z m 11.0869,13.7008 6,-7 a 1,1 0 0 0 -1.5186,-1.3 L 14.5522,17.9027 12.3,14.9 a 1,1 0 1 0 -1.6,1.2 l 3,4 a 0.9964,0.9964 0 0 0 0.7671,0.3994 c 0.0112,10e-4 0.022,10e-4 0.0327,10e-4 A 0.9987,0.9987 0 0 0 15.2593,20.15 Z"
       id="path4"
       inkscape:connector-curvature="0"
       style="fill:#ffffff" />
  </g>
</svg>
