<?xml version="1.0" encoding="UTF-8" standalone="no"?>
<svg
   xmlns:dc="http://purl.org/dc/elements/1.1/"
   xmlns:cc="http://creativecommons.org/ns#"
   xmlns:rdf="http://www.w3.org/1999/02/22-rdf-syntax-ns#"
   xmlns:svg="http://www.w3.org/2000/svg"
   xmlns="http://www.w3.org/2000/svg"
   xmlns:sodipodi="http://sodipodi.sourceforge.net/DTD/sodipodi-0.dtd"
   xmlns:inkscape="http://www.inkscape.org/namespaces/inkscape"
   version="1.1"
   x="0px"
   y="0px"
   viewBox="0 0 100 100"
   xml:space="preserve"
   id="svg12"
   sodipodi:docname="url_icon.svg"
   width="100"
   height="100"
   inkscape:version="0.92.5 (2060ec1f9f, 2020-04-08)"><metadata
     id="metadata18"><rdf:RDF><cc:Work
         rdf:about=""><dc:format>image/svg+xml</dc:format><dc:type
           rdf:resource="http://purl.org/dc/dcmitype/StillImage" /><dc:title></dc:title></cc:Work></rdf:RDF></metadata><defs
     id="defs16" /><sodipodi:namedview
     pagecolor="#ffffff"
     bordercolor="#666666"
     borderopacity="1"
     objecttolerance="10"
     gridtolerance="10"
     guidetolerance="10"
     inkscape:pageopacity="0"
     inkscape:pageshadow="2"
     inkscape:window-width="1920"
     inkscape:window-height="1001"
     id="namedview14"
     showgrid="false"
     inkscape:zoom="1.888"
     inkscape:cx="-118.16737"
     inkscape:cy="62.5"
     inkscape:window-x="-9"
     inkscape:window-y="-9"
     inkscape:window-maximized="1"
     inkscape:current-layer="g6" /><g
     id="g6"
     transform="translate(-0.05,0.0125)"
     style="fill:#090c9b;fill-opacity:1"><path
       d="m 25.74721,60.133764 c 4.583157,4.583156 10.734235,7.115953 17.247141,7.115953 6.512907,0 12.543376,-2.532797 17.247141,-7.115953 2.532797,-2.532797 4.462547,-5.668641 5.789251,-9.045703 0.603046,-1.567922 -0.241219,-3.256454 -1.809141,-3.859501 -1.567922,-0.603046 -3.256453,0.241219 -3.8595,1.809141 -0.964875,2.532797 -2.412188,4.824375 -4.341938,6.874735 -3.497672,3.497672 -8.080828,5.306812 -12.905203,5.306812 -4.824375,0 -9.528141,-1.92975 -12.905204,-5.306812 L 14.892366,40.836263 C 11.394694,37.338591 9.5855537,32.755435 9.5855537,27.93106 c 0,-4.824375 1.9297503,-9.528141 5.3068123,-12.905203 7.115954,-7.1159538 18.694454,-7.1159538 25.810407,0 L 54.81407,29.137154 c 1.206094,1.206094 3.135844,1.206094 4.221329,0 1.206093,-1.206094 1.206093,-3.135844 0,-4.221328 L 45.044711,10.683919 c -9.528141,-9.528141 -24.966141,-9.528141 -34.373673,0 -4.5831563,4.583156 -7.1159533,10.734235 -7.1159533,17.247141 0,6.512906 2.532797,12.543375 7.1159533,17.247141 z"
       id="path2"
       inkscape:connector-curvature="0"
       style="fill:#ffffff;fill-opacity:1;stroke-width:1.20609379" /><path
       d="M 59.156008,85.099905 45.044711,70.988608 c -1.206094,-1.206094 -3.135844,-1.206094 -4.221328,0 -1.206094,1.206094 -1.206094,3.135844 0,4.221328 L 54.93468,89.321233 c 4.703766,4.703766 10.975453,7.115954 17.247141,7.115954 6.271688,0 12.422766,-2.412188 17.247141,-7.115954 4.583156,-4.583156 7.115953,-10.734234 7.115953,-17.247141 0,-6.512906 -2.532797,-12.543375 -7.115953,-17.247141 L 74.23218,39.871388 c -4.583156,-4.583156 -10.734234,-7.115953 -17.247141,-7.115953 -6.512906,0 -12.543375,2.532797 -17.247141,7.115953 -2.532797,2.532797 -4.462547,5.668641 -5.78925,9.045704 -0.603047,1.567922 0.241219,3.256453 1.809141,3.8595 1.567922,0.603047 3.256453,-0.241219 3.8595,-1.809141 0.964875,-2.532797 2.412187,-4.824375 4.341937,-6.874734 3.497672,-3.497672 8.080829,-5.306813 12.905204,-5.306813 4.824375,0 9.528141,1.92975 12.905203,5.306813 l 15.076173,15.076172 c 3.497672,3.497672 5.306812,8.080828 5.306812,12.905203 0,4.824375 -1.92975,9.528141 -5.306812,12.905204 -6.995344,7.236563 -18.573845,7.236563 -25.689798,0.120609 z"
       id="path4"
       inkscape:connector-curvature="0"
       style="fill:#ffffff;fill-opacity:1;stroke-width:1.20609379" /></g></svg>