<?xml version="1.0" encoding="UTF-8" standalone="no"?>
<!-- Created with Inkscape (http://www.inkscape.org/) -->

<svg
   xmlns:dc="http://purl.org/dc/elements/1.1/"
   xmlns:cc="http://creativecommons.org/ns#"
   xmlns:rdf="http://www.w3.org/1999/02/22-rdf-syntax-ns#"
   xmlns:svg="http://www.w3.org/2000/svg"
   xmlns="http://www.w3.org/2000/svg"
   xmlns:xlink="http://www.w3.org/1999/xlink"
   xmlns:sodipodi="http://sodipodi.sourceforge.net/DTD/sodipodi-0.dtd"
   xmlns:inkscape="http://www.inkscape.org/namespaces/inkscape"
   width="1600"
   height="200"
   viewBox="0 0 423.33332 52.916668"
   version="1.1"
   id="svg8"
   inkscape:version="0.92.5 (2060ec1f9f, 2020-04-08)"
   sodipodi:docname="bg,svg.svg">
  <defs
     id="defs2">
    <linearGradient
       inkscape:collect="always"
       id="linearGradient821">
      <stop
         style="stop-color:#090c9b;stop-opacity:1"
         offset="0"
         id="stop817" />
      <stop
         style="stop-color:#57b9ff;stop-opacity:1"
         offset="1"
         id="stop819" />
    </linearGradient>
    <linearGradient
       inkscape:collect="always"
       xlink:href="#linearGradient821"
       id="linearGradient823"
       x1="-5.5862633e-06"
       y1="177.93748"
       x2="423.33334"
       y2="177.93748"
       gradientUnits="userSpaceOnUse"
       gradientTransform="translate(72.52232,25.994041)" />
    <linearGradient
       inkscape:collect="always"
       xlink:href="#linearGradient821"
       id="linearGradient973"
       gradientUnits="userSpaceOnUse"
       gradientTransform="translate(-3.1083984e-6,25.994041)"
       x1="-5.5862633e-06"
       y1="177.93748"
       x2="423.33334"
       y2="177.93748" />
    <linearGradient
       inkscape:collect="always"
       xlink:href="#linearGradient821"
       id="linearGradient1016"
       gradientUnits="userSpaceOnUse"
       gradientTransform="translate(-77.508166,-112.45157)"
       x1="-5.5862633e-06"
       y1="177.93748"
       x2="423.33334"
       y2="177.93748" />
  </defs>
  <sodipodi:namedview
     id="base"
     pagecolor="#107fea"
     bordercolor="#666666"
     borderopacity="1.0"
     inkscape:pageopacity="0"
     inkscape:pageshadow="2"
     inkscape:zoom="0.49497475"
     inkscape:cx="579.87111"
     inkscape:cy="356.0674"
     inkscape:document-units="mm"
     inkscape:current-layer="layer1"
     showgrid="false"
     units="px"
     inkscape:snap-intersection-paths="true"
     inkscape:snap-smooth-nodes="false"
     inkscape:object-paths="false"
     inkscape:window-width="1920"
     inkscape:window-height="1001"
     inkscape:window-x="-9"
     inkscape:window-y="-9"
     inkscape:window-maximized="1"
     inkscape:snap-nodes="true" />
  <metadata
     id="metadata5">
    <rdf:RDF>
      <cc:Work
         rdf:about="">
        <dc:format>image/svg+xml</dc:format>
        <dc:type
           rdf:resource="http://purl.org/dc/dcmitype/StillImage" />
        <dc:title></dc:title>
      </cc:Work>
    </rdf:RDF>
  </metadata>
  <g
     inkscape:label="Layer 1"
     inkscape:groupmode="layer"
     id="layer1"
     transform="translate(0,-244.08331)">
    <rect
       style="opacity:1;vector-effect:none;fill:url(#linearGradient1016);fill-opacity:1;stroke:#ffffff;stroke-width:0;stroke-linecap:round;stroke-linejoin:round;stroke-miterlimit:4;stroke-dasharray:none;stroke-dashoffset:0;stroke-opacity:1;paint-order:normal"
       id="rect815"
       width="423.33334"
       height="238.125"
       x="-77.508163"
       y="-53.576588" />
    <g
       id="g1037"
       transform="translate(-423.33333)">
      <path
         transform="matrix(0.26458333,0,0,0.26458333,0,244.08331)"
         id="path1026"
         d="M 1600,10.71875 V 200 h 1600 l 0.916,-189.289062 C 3119.4357,9.3763097 3042.6498,54.055655 2940,51.509766 2819.8197,48.529135 2703.222,0.68285424 2583.416,0.00585938 2577.5239,-0.02743546 2571.6233,0.05393847 2565.7148,0.25976562 2393.9444,6.243589 2234.0998,105.04958 2062.8574,105.38672 c -157.1808,0.3095 -304.8037,-90.979155 -461.9414,-94.675782 -0.309,-0.0073 -0.6074,0.01391 -0.916,0.0078 z"
         style="opacity:0.38200001;fill:#ffffff;stroke:none;stroke-width:0.95908934px;stroke-linecap:butt;stroke-linejoin:miter;stroke-opacity:1"
         inkscape:connector-curvature="0" />
      <path
         transform="matrix(0.26458333,0,0,0.26458333,0,244.08331)"
         id="path1032"
         d="M 1600,81.601562 V 198.57227 H 3200 V 81.601562 c -32.4023,-7.430511 -64.2705,-12.141409 -93.6621,-12.492187 -157.8621,-1.883754 -212.9555,64.043465 -327.5352,65.804685 -177.6523,2.73071 -337.4784,-84.132817 -515.1504,-86.304685 -2.2056,-0.02646 -4.4053,-0.03786 -6.5996,-0.03711 -138.2405,0.120189 -254.4263,56.654975 -406.6172,58.550785 C 1753.9456,108.32501 1683.3364,91.403013 1600,81.601562 Z"
         style="opacity:0.38200001;fill:#ffffff;stroke:none;stroke-width:0.83342952px;stroke-linecap:butt;stroke-linejoin:miter;stroke-opacity:1"
         inkscape:connector-curvature="0" />
      <path
         transform="matrix(0.26458333,0,0,0.26458333,0,244.08331)"
         id="path1029"
         d="M 1600,151.88477 V 200 h 1600 v -48.11523 c -42.6048,5.5446 -87.897,10.15333 -138.5137,9.46875 -146.8909,-1.9866 -259.0324,-61.22743 -392.459,-61.35352 -2.1177,-0.002 -4.2403,0.007 -6.3691,0.0391 -171.4847,2.27581 -307.8822,71.76684 -465.7832,72.44727 -117.6051,0.50672 -195.1921,-52.94069 -347.5566,-50.9668 -78.025,1.01004 -165.9735,22.44671 -249.3184,30.36524 z"
         style="opacity:1;fill:#ffffff;stroke:none;stroke-width:0.83815986px;stroke-linecap:butt;stroke-linejoin:miter;stroke-opacity:1"
         inkscape:connector-curvature="0" />
    </g>
    <g
       id="g961"
       transform="translate(469.03617,66.08336)" />
  </g>
</svg>
