<?xml version="1.0" encoding="UTF-8" standalone="no"?>
<!-- Created with Inkscape (http://www.inkscape.org/) -->

<svg
   xmlns:dc="http://purl.org/dc/elements/1.1/"
   xmlns:cc="http://creativecommons.org/ns#"
   xmlns:rdf="http://www.w3.org/1999/02/22-rdf-syntax-ns#"
   xmlns:svg="http://www.w3.org/2000/svg"
   xmlns="http://www.w3.org/2000/svg"
   xmlns:xlink="http://www.w3.org/1999/xlink"
   xmlns:sodipodi="http://sodipodi.sourceforge.net/DTD/sodipodi-0.dtd"
   xmlns:inkscape="http://www.inkscape.org/namespaces/inkscape"
   width="3200"
   height="200"
   viewBox="0 0 846.66664 52.916668"
   version="1.1"
   id="svg8"
   inkscape:version="0.92.5 (2060ec1f9f, 2020-04-08)"
   sodipodi:docname="wave1.svg">
  <defs
     id="defs2">
    <linearGradient
       inkscape:collect="always"
       id="linearGradient821">
      <stop
         style="stop-color:#090c9b;stop-opacity:1"
         offset="0"
         id="stop817" />
      <stop
         style="stop-color:#57b9ff;stop-opacity:1"
         offset="1"
         id="stop819" />
    </linearGradient>
    <linearGradient
       inkscape:collect="always"
       xlink:href="#linearGradient821"
       id="linearGradient823"
       x1="-5.5862633e-06"
       y1="177.93748"
       x2="423.33334"
       y2="177.93748"
       gradientUnits="userSpaceOnUse"
       gradientTransform="translate(72.52232,25.994041)" />
    <linearGradient
       inkscape:collect="always"
       xlink:href="#linearGradient821"
       id="linearGradient973"
       gradientUnits="userSpaceOnUse"
       gradientTransform="translate(-3.1083984e-6,25.994041)"
       x1="-5.5862633e-06"
       y1="177.93748"
       x2="423.33334"
       y2="177.93748" />
    <linearGradient
       inkscape:collect="always"
       xlink:href="#linearGradient821"
       id="linearGradient1016"
       gradientUnits="userSpaceOnUse"
       gradientTransform="translate(-77.508166,-112.45157)"
       x1="-5.5862633e-06"
       y1="177.93748"
       x2="423.33334"
       y2="177.93748" />
  </defs>
  <sodipodi:namedview
     id="base"
     pagecolor="#107fea"
     bordercolor="#666666"
     borderopacity="1.0"
     inkscape:pageopacity="0"
     inkscape:pageshadow="2"
     inkscape:zoom="0.7"
     inkscape:cx="1400.4122"
     inkscape:cy="394.39907"
     inkscape:document-units="mm"
     inkscape:current-layer="layer1"
     showgrid="false"
     units="px"
     inkscape:snap-intersection-paths="true"
     inkscape:snap-smooth-nodes="false"
     inkscape:object-paths="false"
     inkscape:window-width="1920"
     inkscape:window-height="1001"
     inkscape:window-x="-9"
     inkscape:window-y="-9"
     inkscape:window-maximized="1"
     inkscape:snap-nodes="true" />
  <metadata
     id="metadata5">
    <rdf:RDF>
      <cc:Work
         rdf:about="">
        <dc:format>image/svg+xml</dc:format>
        <dc:type
           rdf:resource="http://purl.org/dc/dcmitype/StillImage" />
        <dc:title></dc:title>
      </cc:Work>
    </rdf:RDF>
  </metadata>
  <g
     inkscape:label="Layer 1"
     inkscape:groupmode="layer"
     id="layer1"
     transform="translate(0,-244.08331)">
    <rect
       style="opacity:1;vector-effect:none;fill:url(#linearGradient1016);fill-opacity:1;stroke:#ffffff;stroke-width:0;stroke-linecap:round;stroke-linejoin:round;stroke-miterlimit:4;stroke-dasharray:none;stroke-dashoffset:0;stroke-opacity:1;paint-order:normal"
       id="rect815"
       width="423.33334"
       height="238.125"
       x="-77.508163"
       y="-53.576588" />
    <g
       id="g961"
       transform="translate(469.03617,66.08336)" />
    <g
       id="g905">
      <path
         style="opacity:0.38200001;fill:#ffffff;stroke:none;stroke-width:0.06714042;stroke-linecap:butt;stroke-linejoin:miter;stroke-opacity:1"
         d="m -2e-6,246.91931 c 0,0 0,50.08067 0,50.08067 0,0 423.333332,0 423.333332,0 0,0 0.24235,-50.08273 0.24235,-50.08273 -21.55832,-0.35312 -41.87459,11.46829 -69.03402,10.79469 -31.7977,-0.78863 -62.64751,-13.44796 -94.34618,-13.62708 -1.55895,-0.009 -3.12015,0.0127 -4.68344,0.0672 -45.44759,1.58322 -87.73981,27.72564 -133.04769,27.81484 -41.587419,0.0819 -80.645978,-24.07157 -122.22199367,-25.04963 -0.0817562,-0.002 -0.16070791,0.004 -0.24235833,0.002 0,0 0,0 0,0"
         id="path1026"
         inkscape:connector-curvature="0" />
      <path
         style="opacity:0.38200001;fill:#ffffff;stroke:none;stroke-width:0.06714042;stroke-linecap:butt;stroke-linejoin:miter;stroke-opacity:1"
         d="m 423.57569,246.91725 c 0,0 -0.24236,50.08273 -0.24236,50.08273 0,0 423.57568,-0.002 423.57568,-0.002 0,0 0.24236,-50.08273 0.24236,-50.08273 -21.55833,-0.35312 -41.8746,11.46829 -69.03402,10.79469 -31.79771,-0.78863 -62.64751,-13.44796 -94.34618,-13.62708 -1.55896,-0.009 -3.12016,0.0127 -4.68345,0.0672 -45.44758,1.58322 -87.7398,27.72564 -133.04768,27.81484 -41.58742,0.0819 -80.64598,-24.07157 -122.222,-25.04963 -0.0817,-0.002 -0.1607,0.004 -0.24235,0.002 0,0 0,-2e-5 0,-2e-5"
         id="path1026-4"
         inkscape:connector-curvature="0" />
    </g>
    <g
       id="g901">
      <path
         style="opacity:0.38200001;fill:#ffffff;stroke:none;stroke-width:0.05834368;stroke-linecap:butt;stroke-linejoin:miter;stroke-opacity:1"
         d="m -2e-6,265.67372 c 0,0 0,30.9485 0,30.9485 0,0 423.333332,0 423.333332,0 0,0 0,-30.9485 0,-30.9485 -8.57311,-1.96599 -17.00491,-3.21241 -24.78143,-3.30522 -41.76768,-0.49841 -56.34448,16.94483 -86.66036,17.41082 -47.00384,0.7225 -89.29116,-22.26014 -136.30021,-22.83478 -0.58356,-0.007 -1.16557,-0.01 -1.74614,-0.01 -36.57613,0.0318 -67.31696,14.98996 -107.584133,15.49156 -25.52962,0.31802 -44.211637,-4.15926 -66.261059,-6.75256 0,0 0,0 0,0"
         id="path1032"
         inkscape:connector-curvature="0" />
      <path
         style="opacity:0.38200001;fill:#ffffff;stroke:none;stroke-width:0.05834368;stroke-linecap:butt;stroke-linejoin:miter;stroke-opacity:1"
         d="m 423.33333,265.67372 c 0,0 0,31.32626 0,31.32626 0,0 423.33333,-0.37776 423.33333,-0.37776 0,0 0,-30.9485 0,-30.9485 -8.57311,-1.96599 -17.00491,-3.21241 -24.78143,-3.30522 -41.76768,-0.49841 -56.34448,16.94483 -86.66036,17.41082 -47.00384,0.7225 -89.29116,-22.26014 -136.30021,-22.83478 -0.58356,-0.007 -1.16557,-0.01 -1.74614,-0.01 -36.57613,0.0318 -67.31696,14.98996 -107.58413,15.49156 -25.52962,0.31802 -44.21164,-4.15926 -66.26106,-6.75256 0,0 0,0 0,0"
         id="path1032-5"
         inkscape:connector-curvature="0" />
    </g>
    <g
       id="g884">
      <path
         style="opacity:1;fill:#ffffff;stroke:none;stroke-width:0.05867483;stroke-linecap:butt;stroke-linejoin:miter;stroke-opacity:1"
         d="m -2e-6,284.26949 c 0,0 0,12.73049 0,12.73049 0,0 423.333332,0 423.333332,0 0,0 0,-12.73049 0,-12.73049 -11.27252,1.46701 -23.25608,2.6864 -36.64842,2.50527 -38.86488,-0.52562 -68.53565,-16.19976 -103.83811,-16.23312 -0.56031,-5.3e-4 -1.12191,0.002 -1.68516,0.0104 -45.37199,0.60214 -81.46049,18.98831 -123.23847,19.16834 -31.11635,0.13407 -51.64457,-14.00723 -91.957679,-13.48497 -20.644115,0.26724 -43.913822,5.93903 -65.9654929999999,8.03414 0,0 -10e-14,-10e-6 -10e-14,-10e-6"
         id="path1029"
         inkscape:connector-curvature="0" />
      <path
         style="opacity:1;fill:#ffffff;stroke:none;stroke-width:0.05867483;stroke-linecap:butt;stroke-linejoin:miter;stroke-opacity:1"
         d="m 423.33333,284.26949 c 0,0 0,12.73049 0,12.73049 0,0 423.33333,0 423.33333,0 0,0 0,-12.73049 0,-12.73049 -11.27252,1.46701 -23.25608,2.6864 -36.64842,2.50527 -38.86488,-0.52562 -68.53565,-16.19976 -103.83811,-16.23312 -0.56031,-5.3e-4 -1.12191,0.002 -1.68516,0.0104 -45.37199,0.60214 -81.46049,18.98831 -123.23847,19.16834 -31.11635,0.13407 -51.64457,-14.00723 -91.95768,-13.48497 -20.64411,0.26724 -43.91382,5.93902 -65.96549,8.03413 0,0 0,0 0,0"
         id="path1029-0"
         inkscape:connector-curvature="0" />
    </g>
  </g>
</svg>
