<?xml version="1.0" encoding="UTF-8" standalone="no"?>
<!-- Created with Inkscape (http://www.inkscape.org/) -->

<svg
   xmlns:dc="http://purl.org/dc/elements/1.1/"
   xmlns:cc="http://creativecommons.org/ns#"
   xmlns:rdf="http://www.w3.org/1999/02/22-rdf-syntax-ns#"
   xmlns:svg="http://www.w3.org/2000/svg"
   xmlns="http://www.w3.org/2000/svg"
   xmlns:xlink="http://www.w3.org/1999/xlink"
   xmlns:sodipodi="http://sodipodi.sourceforge.net/DTD/sodipodi-0.dtd"
   xmlns:inkscape="http://www.inkscape.org/namespaces/inkscape"
   width="3200"
   height="200"
   viewBox="0 0 846.66664 52.916668"
   version="1.1"
   id="svg8"
   inkscape:version="0.92.5 (2060ec1f9f, 2020-04-08)"
   sodipodi:docname="bg,svg.svg">
  <defs
     id="defs2">
    <linearGradient
       inkscape:collect="always"
       id="linearGradient821">
      <stop
         style="stop-color:#090c9b;stop-opacity:1"
         offset="0"
         id="stop817" />
      <stop
         style="stop-color:#57b9ff;stop-opacity:1"
         offset="1"
         id="stop819" />
    </linearGradient>
    <linearGradient
       inkscape:collect="always"
       xlink:href="#linearGradient821"
       id="linearGradient823"
       x1="-5.5862633e-06"
       y1="177.93748"
       x2="423.33334"
       y2="177.93748"
       gradientUnits="userSpaceOnUse"
       gradientTransform="translate(72.52232,25.994041)" />
    <linearGradient
       inkscape:collect="always"
       xlink:href="#linearGradient821"
       id="linearGradient973"
       gradientUnits="userSpaceOnUse"
       gradientTransform="translate(-3.1083984e-6,25.994041)"
       x1="-5.5862633e-06"
       y1="177.93748"
       x2="423.33334"
       y2="177.93748" />
    <linearGradient
       inkscape:collect="always"
       xlink:href="#linearGradient821"
       id="linearGradient1016"
       gradientUnits="userSpaceOnUse"
       gradientTransform="translate(-77.508166,-112.45157)"
       x1="-5.5862633e-06"
       y1="177.93748"
       x2="423.33334"
       y2="177.93748" />
  </defs>
  <sodipodi:namedview
     id="base"
     pagecolor="#107fea"
     bordercolor="#666666"
     borderopacity="1.0"
     inkscape:pageopacity="0"
     inkscape:pageshadow="2"
     inkscape:zoom="0.24748737"
     inkscape:cx="1113.0094"
     inkscape:cy="561.48113"
     inkscape:document-units="mm"
     inkscape:current-layer="layer1"
     showgrid="false"
     units="px"
     inkscape:snap-intersection-paths="true"
     inkscape:snap-smooth-nodes="false"
     inkscape:object-paths="false"
     inkscape:window-width="1920"
     inkscape:window-height="1001"
     inkscape:window-x="-9"
     inkscape:window-y="-9"
     inkscape:window-maximized="1"
     inkscape:snap-nodes="true" />
  <metadata
     id="metadata5">
    <rdf:RDF>
      <cc:Work
         rdf:about="">
        <dc:format>image/svg+xml</dc:format>
        <dc:type
           rdf:resource="http://purl.org/dc/dcmitype/StillImage" />
        <dc:title></dc:title>
      </cc:Work>
    </rdf:RDF>
  </metadata>
  <g
     inkscape:label="Layer 1"
     inkscape:groupmode="layer"
     id="layer1"
     transform="translate(0,-244.08331)">
    <rect
       style="opacity:1;vector-effect:none;fill:url(#linearGradient1016);fill-opacity:1;stroke:#ffffff;stroke-width:0;stroke-linecap:round;stroke-linejoin:round;stroke-miterlimit:4;stroke-dasharray:none;stroke-dashoffset:0;stroke-opacity:1;paint-order:normal"
       id="rect815"
       width="423.33334"
       height="238.125"
       x="-77.508163"
       y="-53.576588" />
    <path
       style="opacity:0.38200001;fill:#ffffff;stroke:none;stroke-width:0.95908934px;stroke-linecap:butt;stroke-linejoin:miter;stroke-opacity:1"
       d="M 0 29.169922 L 0 200 L 1600 200 L 1600 10.71875 C 1512.4281 8.9868617 1442.2895 54.046715 1340 51.509766 C 1219.8198 48.529135 1103.22 0.68471533 983.41406 0.0078125 C 977.52197 -0.0254778 971.62326 0.053938478 965.71484 0.25976562 C 793.94444 6.243589 634.70483 101.72345 462.85742 105.38672 C 306.1612 108.72699 229.64158 41.690779 0 29.169922 z "
       id="path825"
       transform="matrix(0.26458333,0,0,0.26458333,0,244.08331)" />
    <path
       style="opacity:0.38200001;fill:#ffffff;stroke:none;stroke-width:0.83342952px;stroke-linecap:butt;stroke-linejoin:miter;stroke-opacity:1"
       d="M 657.05273,48.572266 C 518.81225,48.692455 402.62638,105.22724 250.43555,107.12305 153.94557,108.32501 76.095658,92.446148 0,85.333984 V 198.57227 H 1600 3200.916 V 81.601562 c -83.3364,9.801449 -153.9457,26.723448 -250.4355,25.521488 -152.1909,-1.89581 -268.3767,-58.430595 -406.6172,-58.550784 -2.1943,0 -4.394,0.01065 -6.5996,0.03711 -177.672,2.171868 -337.4981,89.035395 -515.1504,86.304685 -114.5797,-1.76122 -169.6731,-67.688439 -327.5352,-65.804685 -29.3916,0.350778 -61.8973,13.062706 -94.5781,12.492187 -31.4924,-0.549773 -64.2705,-12.141409 -93.6621,-12.492187 -157.8621,-1.883754 -212.9555,64.043465 -327.5352,65.804685 -177.6523,2.73071 -337.47843,-84.132817 -515.15036,-86.304685 -2.20565,-0.02646 -4.40533,-0.03786 -6.59961,-0.03711 z"
       transform="matrix(0.26458333,0,0,0.26458333,0,244.08331)"
       id="path825-5"
       inkscape:connector-curvature="0"
       sodipodi:nodetypes="cscccccsccscscscc" />
    <g
       id="g1046"
       transform="translate(-2e-6)">
      <path
         inkscape:connector-curvature="0"
         id="path1026"
         d="m 846.90901,246.91931 v 50.08067 H 423.33333 l 0,-50.08067 c 21.55833,-0.35312 41.8746,11.46623 69.03402,10.79263 31.79771,-0.78863 62.64751,-13.44796 94.34618,-13.62708 1.55896,-0.009 3.12016,0.0127 4.68345,0.0672 45.44758,1.58322 87.7398,27.72564 133.04768,27.81484 41.58742,0.0819 80.64598,-24.07157 122.222,-25.04963 0.0818,-0.002 0.1607,0.004 0.24235,0.002 z"
         style="opacity:0.38200001;fill:#ffffff;stroke:none;stroke-width:0.25375906px;stroke-linecap:butt;stroke-linejoin:miter;stroke-opacity:1"
         sodipodi:nodetypes="ccccsccsccc" />
      <path
         style="opacity:1;fill:#ffffff;stroke:none;stroke-width:0.83815986px;stroke-linecap:butt;stroke-linejoin:miter;stroke-opacity:1"
         d="m 1069.0273,100 c -2.1177,-0.002 -4.2403,0.007 -6.3691,0.0391 C 891.17356,102.31483 754.77603,171.8059 596.875,172.48633 479.2699,172.99305 401.68294,119.54564 249.31836,121.51953 171.29336,122.52957 75.203123,158.08236 0,192.5332 V 200 h 1600 1600.916 v -48.11523 c -83.3449,-7.91853 -171.2933,-29.3552 -249.3183,-30.36524 -152.3645,-1.97389 -229.9516,51.47352 -347.5567,50.9668 -157.901,-0.68043 -294.2985,-70.17146 -465.7832,-72.44727 -2.1288,-0.0314 -4.2514,-0.04106 -6.3691,-0.0391 -133.4266,0.12609 -245.5681,59.36692 -392.459,61.35352 -50.6167,0.68458 -92.8461,-9.47916 -139.4297,-9.46875 -46.279,0.0103 -87.897,10.15333 -138.5137,9.46875 C 1314.5954,159.36688 1202.4539,100.12609 1069.0273,100 Z"
         transform="matrix(0.26458333,0,0,0.26458333,2e-6,244.08331)"
         id="path1029"
         inkscape:connector-curvature="0"
         sodipodi:nodetypes="scscccccccscssass" />
    </g>
    <g
       id="g961"
       transform="translate(469.03617,66.08336)" />
  </g>
</svg>
