<?xml version="1.0" encoding="UTF-8" standalone="no"?>
<svg
   xmlns:dc="http://purl.org/dc/elements/1.1/"
   xmlns:cc="http://creativecommons.org/ns#"
   xmlns:rdf="http://www.w3.org/1999/02/22-rdf-syntax-ns#"
   xmlns:svg="http://www.w3.org/2000/svg"
   xmlns="http://www.w3.org/2000/svg"
   xmlns:sodipodi="http://sodipodi.sourceforge.net/DTD/sodipodi-0.dtd"
   xmlns:inkscape="http://www.inkscape.org/namespaces/inkscape"
   version="1.1"
   x="0px"
   y="0px"
   viewBox="0 0 100 100"
   xml:space="preserve"
   id="svg12"
   sodipodi:docname="favicon.svg"
   width="100"
   height="100"
   inkscape:version="0.92.5 (2060ec1f9f, 2020-04-08)"><metadata
     id="metadata18"><rdf:RDF><cc:Work
         rdf:about=""><dc:format>image/svg+xml</dc:format><dc:type
           rdf:resource="http://purl.org/dc/dcmitype/StillImage" /><dc:title></dc:title></cc:Work></rdf:RDF></metadata><defs
     id="defs16" /><sodipodi:namedview
     pagecolor="#ffffff"
     bordercolor="#666666"
     borderopacity="1"
     objecttolerance="10"
     gridtolerance="10"
     guidetolerance="10"
     inkscape:pageopacity="0"
     inkscape:pageshadow="2"
     inkscape:window-width="2560"
     inkscape:window-height="1017"
     id="namedview14"
     showgrid="true"
     inkscape:zoom="2.6700352"
     inkscape:cx="-57.810942"
     inkscape:cy="123.00634"
     inkscape:window-x="-8"
     inkscape:window-y="-8"
     inkscape:window-maximized="1"
     inkscape:current-layer="g6"
     showguides="false" /><g
     id="g6"
     transform="translate(-0.05,0.0125)"
     style="fill:#090c9b;fill-opacity:1"><path
       style="fill:#090c9b;fill-opacity:1"
       d="m 16.304999,-77.006309 c -3.245512,0.08881 -6.5105034,0.970851 -9.5039074,2.724609 -4.654032,2.687007 -8.002767,7.069157 -9.40039,12.285157 -1.3976227,5.215999 -0.663076,10.589221 1.99804695,15.339843 3.25029205,5.02667 8.28844105,9.232145 13.05078145,10.583985 5.215999,1.397624 10.589221,0.663077 15.339844,-1.998047 2.560584,-1.478354 8.290576,-8.905945 12.537109,-13.261719 3.593473,-3.685914 6.70628,-8.062482 10.949219,-10.890625 3.55176,-2.05061 7.610905,-2.515746 11.474609,-1.480468 4.956853,1.78052 7.350519,3.948895 9.941643,7.651277 2.050609,3.551761 2.703008,8.311191 1.667732,12.174894 -1.035276,3.863703 -3.590245,7.217367 -7.019531,9.197266 -7.225994,4.17193 -16.497992,1.686933 -20.669922,-5.539063 l -1.484673,-1.611625 c -0.707107,-1.224746 -2.252707,-1.639239 -3.38086,-0.90625 -1.224744,0.707107 -1.588455,2.6238 -0.855468,3.751953 5.586144,9.675484 19.261251,14.299823 28.840142,8.687798 4.654031,-2.687006 8.002768,-7.069159 9.40039,-12.285157 2.279685,-11.393494 -4.17356,-22.836916 -15.048828,-25.923828 -5.215998,-1.397624 -10.58922,-0.66503 -15.339844,1.996094 -2.559711,1.47785 -8.2704,7.339627 -11.787109,11.578125 -2.5887,3.12002 -6.607341,9.95814 -11.699219,12.576172 -3.429782,1.763451 -7.610906,2.515744 -11.474609,1.480468 -4.9554764,-1.781388 -7.5413204,-4.648438 -10.1289064,-8.353515 -2.050611,-3.55176 -2.515746,-7.608953 -1.480469,-11.472656 1.035276,-3.863704 3.588293,-7.217367 7.017578,-9.197266 7.2259954,-4.17193 16.6872084,-1.312405 20.8591384,5.91359 l 0.173828,0.300781 c 0.707107,1.224745 2.252706,1.639239 3.38086,0.90625 1.224744,-0.707107 1.586503,-2.625754 0.853515,-3.753907 -3.840474,-6.651895 -11.070575,-10.669512 -18.2107,-10.474136 z"
       id="path2"
       inkscape:connector-curvature="0"
       sodipodi:nodetypes="scscccacccssccccccccsaccssccccs" /><path
       style="fill:none;stroke:#090c9b;stroke-width:6.5;stroke-linecap:round;stroke-linejoin:round;stroke-miterlimit:4;stroke-dasharray:none;stroke-opacity:1;paint-order:normal;fill-opacity:1"
       d="m 38.229034,43.296019 c -3.583564,-1.611832 -7.609716,-4.130776 -11.387552,-3.050086 -3.304253,0.945224 -6.429364,2.692693 -9.440418,4.430231 -3.026932,1.7467 -5.870906,3.447269 -8.6051673,5.988393 -2.8782798,2.674965 -3.5652096,7.4912 -3.0523239,11.386952 1.0879942,8.264138 5.8907042,16.582675 12.5036602,21.656974 3.117377,2.392049 7.609715,4.130776 11.387551,3.050086 3.304256,-0.94522 6.421738,-2.746071 9.439145,-4.488171 3.017406,-1.7421 6.135728,-3.541495 8.606441,-5.930453 2.81674,-2.723541 2.190094,-16.702723 2.319046,-25.15741"
       id="path4537"
       inkscape:connector-curvature="0"
       sodipodi:nodetypes="ccsssssssc" /><path
       style="fill:none;fill-opacity:1;stroke:#090c9b;stroke-width:6.5;stroke-linecap:round;stroke-linejoin:round;stroke-miterlimit:4;stroke-dasharray:none;stroke-opacity:1;paint-order:normal"
       d="m 61.870968,58.464036 c 3.583564,1.611832 7.609715,4.130776 11.387551,3.050086 3.304254,-0.945224 6.429368,-2.692695 9.440419,-4.430231 3.026936,-1.746702 5.870907,-3.447269 8.605168,-5.988394 2.878273,-2.674961 3.565209,-7.491199 3.052321,-11.38695 -1.087998,-8.264135 -5.890708,-16.582673 -12.50366,-21.656974 -3.117376,-2.39205 -7.609716,-4.130776 -11.387549,-3.050087 -3.304262,0.945222 -6.421737,2.74607 -9.439146,4.488172 -3.017402,1.742098 -6.135727,3.541494 -8.60644,5.930452 -2.816741,2.723541 -2.291265,17.307739 -2.420216,25.762425"
       id="path4537-2"
       inkscape:connector-curvature="0"
       sodipodi:nodetypes="ccsssssssc" /></g></svg>