<?xml version="1.0" encoding="UTF-8" standalone="no"?>
<svg
   xmlns:dc="http://purl.org/dc/elements/1.1/"
   xmlns:cc="http://creativecommons.org/ns#"
   xmlns:rdf="http://www.w3.org/1999/02/22-rdf-syntax-ns#"
   xmlns:svg="http://www.w3.org/2000/svg"
   xmlns="http://www.w3.org/2000/svg"
   xmlns:sodipodi="http://sodipodi.sourceforge.net/DTD/sodipodi-0.dtd"
   xmlns:inkscape="http://www.inkscape.org/namespaces/inkscape"
   version="1.1"
   x="0px"
   y="0px"
   viewBox="0 0 100 100"
   xml:space="preserve"
   id="svg12"
   sodipodi:docname="favicon.svg"
   width="100"
   height="100"
   inkscape:version="1.0.2 (1.0.2+r75+1)"
   inkscape:export-filename="/home/kuba/github/makelongurl/assets/favicon.png"
   inkscape:export-xdpi="288"
   inkscape:export-ydpi="288"><metadata
     id="metadata18"><rdf:RDF><cc:Work
         rdf:about=""><dc:format>image/svg+xml</dc:format><dc:type
           rdf:resource="http://purl.org/dc/dcmitype/StillImage" /><dc:title></dc:title></cc:Work></rdf:RDF></metadata><defs
     id="defs16" /><sodipodi:namedview
     pagecolor="#e5e8e8"
     bordercolor="#666666"
     borderopacity="1"
     objecttolerance="10"
     gridtolerance="10"
     guidetolerance="10"
     inkscape:pageopacity="0"
     inkscape:pageshadow="2"
     inkscape:window-width="2560"
     inkscape:window-height="1017"
     id="namedview14"
     showgrid="true"
     inkscape:zoom="3.776"
     inkscape:cx="-13.14261"
     inkscape:cy="20.210521"
     inkscape:window-x="0"
     inkscape:window-y="30"
     inkscape:window-maximized="1"
     inkscape:current-layer="g6"
     showguides="false"
     inkscape:document-rotation="0" /><g
     id="g6"
     transform="translate(-0.05,0.0125)"
     style="fill:#090c9b;fill-opacity:1"><rect
       style="fill:#ffffff;fill-rule:evenodd;stroke-width:6.35814;stroke-linecap:round;stroke-linejoin:round;stroke-miterlimit:4;stroke-dasharray:none;paint-order:stroke fill markers"
       id="rect834"
       width="100"
       height="100"
       x="0.050000001"
       y="-0.0125"
       ry="33.359135" /><path
       style="fill:#090c9b;fill-opacity:1"
       d="m 16.304999,-77.006309 c -3.245512,0.08881 -6.5105034,0.970851 -9.5039074,2.724609 -4.654032,2.687007 -8.002767,7.069157 -9.40039,12.285157 -1.3976227,5.215999 -0.663076,10.589221 1.99804695,15.339843 3.25029205,5.02667 8.28844105,9.232145 13.05078145,10.583985 5.215999,1.397624 10.746004,0.344144 15.339844,-1.998047 5.419484,-2.76315 12.537109,-13.261719 12.537109,-13.261719 0,0 6.326387,-8.626021 10.949219,-10.890625 3.463338,-1.696599 7.610905,-2.515746 11.474609,-1.480468 4.956853,1.78052 7.350519,3.948895 9.941643,7.651277 2.050609,3.551761 2.703008,8.311191 1.667732,12.174894 -1.035276,3.863703 -3.590245,7.217367 -7.019531,9.197266 -7.225994,4.17193 -16.497992,1.686933 -20.669922,-5.539063 l -1.484673,-1.611625 c -0.707107,-1.224746 -2.252707,-1.639239 -3.38086,-0.90625 -1.224744,0.707107 -1.588455,2.6238 -0.855468,3.751953 5.586144,9.675484 19.261251,14.299823 28.840142,8.687798 4.654031,-2.687006 8.002768,-7.069159 9.40039,-12.285157 2.279685,-11.393494 -4.17356,-22.836916 -15.048828,-25.923828 -5.215998,-1.397624 -10.70337,-0.260334 -15.339844,1.996094 -4.952145,2.410055 -11.787109,11.578125 -11.787109,11.578125 0,0 -6.607341,9.95814 -11.699219,12.576172 -3.429782,1.763451 -7.610906,2.515744 -11.474609,1.480468 -4.9554764,-1.781388 -7.5413204,-4.648438 -10.1289064,-8.353515 -2.050611,-3.55176 -2.515746,-7.608953 -1.480469,-11.472656 1.035276,-3.863704 3.588293,-7.217367 7.017578,-9.197266 7.2259954,-4.17193 16.6872084,-1.312405 20.8591384,5.91359 l 0.173828,0.300781 c 0.707107,1.224745 2.252706,1.639239 3.38086,0.90625 1.224744,-0.707107 1.586503,-2.625754 0.853515,-3.753907 -3.840474,-6.651895 -11.070575,-10.669512 -18.2107,-10.474136 z"
       id="path2"
       inkscape:connector-curvature="0"
       sodipodi:nodetypes="scsccacaccsscccccccacaccssccccs" /><g
       id="g862"
       transform="matrix(0.98317424,-0.26344072,0.26344072,0.98317424,-12.402122,14.01857)"
       style="stroke-width:7.61403716;stroke-miterlimit:4;stroke-dasharray:none"><path
         style="fill:none;fill-opacity:1;stroke:#090c9b;stroke-width:7.61403716;stroke-linecap:round;stroke-linejoin:round;stroke-miterlimit:4;stroke-dasharray:none;stroke-opacity:1;paint-order:normal"
         d="m 36.944902,41.696566 c -3.359745,-1.51116 -5.111999,-2.692178 -8.653882,-1.678985 -3.097878,0.886188 -6.027804,2.524515 -8.850795,4.15353 -2.837879,1.637607 -5.504226,3.231964 -8.067714,5.614376 -2.6985094,2.507894 -3.3425367,7.023321 -2.8616846,10.675755 1.020042,7.747984 5.5227886,15.546969 11.7227176,20.304341 2.922674,2.242648 7.134433,3.872779 10.676318,2.859585 3.097881,-0.886184 6.020654,-2.574558 8.849602,-4.207852 2.828945,-1.633294 5.752507,-3.320304 8.068906,-5.560054 2.640814,-2.553436 2.053307,-15.659518 2.174205,-23.586149"
         id="path4537"
         inkscape:connector-curvature="0"
         sodipodi:nodetypes="ccsssssssc" /><path
         style="fill:none;fill-opacity:1;stroke:#090c9b;stroke-width:7.61403716;stroke-linecap:round;stroke-linejoin:round;stroke-miterlimit:4;stroke-dasharray:none;stroke-opacity:1;paint-order:normal"
         d="m 63.060255,58.84566 c 3.35974,1.51116 5.112,2.692178 8.65388,1.678985 3.09788,-0.886188 6.0278,-2.524515 8.8508,-4.15353 2.83787,-1.637607 5.50422,-3.231964 8.06771,-5.614376 2.69851,-2.507894 3.34254,-7.023321 2.86168,-10.675755 -1.02004,-7.747984 -5.52278,-15.546969 -11.72271,-20.304341 -2.92268,-2.242648 -7.13444,-3.872779 -10.67632,-2.859585 -3.09788,0.886184 -6.02066,2.574558 -8.8496,4.207852 -2.82895,1.633294 -5.75251,3.320304 -8.06891,5.560054 -2.64081,2.553436 -2.05331,15.659518 -2.17421,23.586149"
         id="path4537-3"
         inkscape:connector-curvature="0"
         sodipodi:nodetypes="ccsssssssc" /></g></g></svg>
