<?xml version="1.0" encoding="UTF-8" standalone="no"?>
<svg
   xmlns:dc="http://purl.org/dc/elements/1.1/"
   xmlns:cc="http://creativecommons.org/ns#"
   xmlns:rdf="http://www.w3.org/1999/02/22-rdf-syntax-ns#"
   xmlns:svg="http://www.w3.org/2000/svg"
   xmlns="http://www.w3.org/2000/svg"
   xmlns:sodipodi="http://sodipodi.sourceforge.net/DTD/sodipodi-0.dtd"
   xmlns:inkscape="http://www.inkscape.org/namespaces/inkscape"
   version="1.1"
   x="0px"
   y="0px"
   viewBox="0 0 100 100"
   enable-background="new 0 0 90 90"
   xml:space="preserve"
   id="svg20"
   sodipodi:docname="fill_icon.svg"
   width="100"
   height="100"
   inkscape:version="0.92.5 (2060ec1f9f, 2020-04-08)"><metadata
     id="metadata26"><rdf:RDF><cc:Work
         rdf:about=""><dc:format>image/svg+xml</dc:format><dc:type
           rdf:resource="http://purl.org/dc/dcmitype/StillImage" /><dc:title></dc:title></cc:Work></rdf:RDF></metadata><defs
     id="defs24" /><sodipodi:namedview
     pagecolor="#ffffff"
     bordercolor="#666666"
     borderopacity="1"
     objecttolerance="10"
     gridtolerance="10"
     guidetolerance="10"
     inkscape:pageopacity="0"
     inkscape:pageshadow="2"
     inkscape:window-width="1920"
     inkscape:window-height="1001"
     id="namedview22"
     showgrid="false"
     inkscape:zoom="2.0977778"
     inkscape:cx="-106.35064"
     inkscape:cy="56.25"
     inkscape:window-x="-9"
     inkscape:window-y="-9"
     inkscape:window-maximized="1"
     inkscape:current-layer="svg20" /><path
     d="m 82.450652,20.587117 c -2.1,-1.9 -5.6,-1.6 -7.4,0.4 l -5.4,6.1 v 0 l -25,28.8 c -0.3,0.4 -0.5,0.8 -0.5,1.3 l -1.2,10.7 c -0.1,0.7 0.2,1.5 0.8,2 0.4,0.4 1,0.6 1.5,0.6 0.2,0 0.4,0 0.5,-0.1 l 10.5,-2.5 c 0.5,-0.1 0.9,-0.4 1.2,-0.7 l 26.5,-30.5 3.8,-4.3 c 1.9,-2.2 1.7,-5.5 -0.5,-7.4 z m -4,3.5 c 0.3,-0.4 0.6,-0.3 0.9,-0.1 l 4.9,4.4 c 0.3,0.2 0.3,0.6 0.1,0.9 l -2.3,2.6 -5.9,-5.2 z m -30.2,38 2.7,2.4 -3,0.7 z m 7.3,0.3 -5.9,-5.2 23.4,-27 5.9,5.2 z"
     id="path2"
     inkscape:connector-curvature="0"
     style="fill:#090c9b;fill-opacity:1" /><path
     d="m 72.050652,57.487117 c -1.3,0 -2.3,1 -2.3,2.3 v 16.4 h -54.2 v -49 h 44.1 c 1.3,0 2.3,-1 2.3,-2.3 0,-1.3 -1,-2.3 -2.3,-2.3 h -44.6 c -2.3,0 -4.1,1.9 -4.1,4.1 v 49.9 c 0,2.3 1.9,4.1 4.1,4.1 h 55.1 c 2.3,0 4.1,-1.9 4.1,-4.1 v -16.8 c 0.1,-1.2 -1,-2.3 -2.2,-2.3 z"
     id="path4"
     inkscape:connector-curvature="0"
     style="fill:#090c9b;fill-opacity:1" /><path
     d="m 22.050652,44.687117 h 9.4 c 1.3,0 2.3,-1 2.3,-2.3 0,-1.3 -1,-2.3 -2.3,-2.3 h -9.4 c -1.3,0 -2.3,1 -2.3,2.3 0,1.2 1,2.3 2.3,2.3 z"
     id="path6"
     inkscape:connector-curvature="0"
     style="fill:#090c9b;fill-opacity:1" /><path
     d="m 47.550652,33.287117 c 0,-1.3 -1,-2.3 -2.3,-2.3 h -23.2 c -1.3,0 -2.3,1 -2.3,2.3 0,1.3 1,2.3 2.3,2.3 h 23.2 c 1.3,0 2.3,-1 2.3,-2.3 z"
     id="path8"
     inkscape:connector-curvature="0"
     style="fill:#090c9b;fill-opacity:1" /><path
     d="m 41.750652,51.387117 c 0,-1.3 -1,-2.3 -2.3,-2.3 h -17 c -1.3,0 -2.3,1 -2.3,2.3 0,1.3 1,2.3 2.3,2.3 h 17 c 1.3,0 2.3,-1 2.3,-2.3 z"
     id="path10"
     inkscape:connector-curvature="0"
     style="fill:#090c9b;fill-opacity:1" /><path
     d="m 22.450652,62.787117 h 5.5 c 1.3,0 2.3,-1 2.3,-2.3 0,-1.3 -1,-2.3 -2.3,-2.3 h -5.5 c -1.3,0 -2.3,1 -2.3,2.3 0,1.3 1,2.3 2.3,2.3 z"
     id="path12"
     inkscape:connector-curvature="0"
     style="fill:#090c9b;fill-opacity:1" /><path
     d="m 22.450652,71.787117 h 10.2 c 1.3,0 2.3,-1 2.3,-2.3 0,-1.3 -1,-2.3 -2.3,-2.3 h -10.2 c -1.3,0 -2.3,1 -2.3,2.3 0,1.3 1,2.3 2.3,2.3 z"
     id="path14"
     inkscape:connector-curvature="0"
     style="fill:#090c9b;fill-opacity:1" /></svg>